<?xml version="1.0" encoding="UTF-8" standalone="no"?>
<svg width="100%" height="100%" viewBox="0 0 40 40" version="1.1" xmlns="http://www.w3.org/2000/svg" xmlns:xlink="http://www.w3.org/1999/xlink" xml:space="preserve">
  <path fill="rgba(0,0,0,0.1)" d="M0,0L1.41,0L4.24,2.82L3.618,3.442L16.553,16.377L17.17,15.76L20,18.59L20,18.6L22.83,15.77L23.442,16.382L36.377,3.447L35.76,2.83L38.59,0L40,0L40,1.41L37.17,4.24L36.553,3.623L23.618,16.558L24.24,17.18L21.41,20L24.24,22.83L23.623,23.447L36.553,36.377L37.17,35.76L40,38.59L40,40L38.59,40L35.76,37.17L36.377,36.553L23.447,23.623L22.83,24.24L20,21.41L17.17,24.24L16.553,23.623L3.623,36.553L4.24,37.17L1.41,40L0,40L0,38.59L2.83,35.76L3.447,36.377L16.377,23.447L15.76,22.83L18.59,20L15.76,17.17L16.377,16.553L3.442,3.618L2.83,4.23L0,1.4L0,0Z"/>
</svg>
